<svg xmlns="http://www.w3.org/2000/svg" width="256" height="256" viewBox="0 0 256 256" role="img" aria-labelledby="title desc">
<title id="title">Ada demo persona portrait</title><desc id="desc">Original friendly rounded avatar illustration for the Menagerai demo login role.</desc>
<defs><linearGradient id="bg" x1="0" y1="0" x2="1" y2="1"><stop stop-color="#fff7ed"/><stop offset="1" stop-color="#eff6ff"/></linearGradient><filter id="s" x="-20%" y="-20%" width="140%" height="140%"><feDropShadow dx="0" dy="10" stdDeviation="10" flood-color="#111827" flood-opacity=".14"/></filter></defs>
<rect width="256" height="256" rx="36" fill="url(#bg)"/><circle cx="203" cy="51" r="24" fill="#f97316" opacity=".18"/><circle cx="50" cy="205" r="30" fill="#2563eb" opacity=".12"/><path d="M43 72c21-30 65-41 101-27 42 17 68 57 58 98-11 46-54 77-101 69-41-7-71-41-72-82-.1-20 5-40 14-58z" fill="#fff" opacity=".76"/>
<g filter="url(#s)"><path d="M80 186 C88 158 168 158 176 186 L188 232 H68 Z" fill="#2563eb"/><path d="M88 170 C102 184 153 184 168 170 C158 158 98 158 88 170Z" fill="#fff" opacity=".25"/><path d="M72 92 C90 62 130 58 148 90 C166 100 178 119 170 144 C160 178 94 178 76 145 C62 123 62 105 72 92" fill="#1f2937"/><path d="M98 106 C98 84 158 84 158 106 L154 134 C150 154 106 154 102 134 Z" fill="#f7c7a3"/><path d="M105 122 q8 7 18 0" fill="none" stroke="#92400e" stroke-width="4" stroke-linecap="round" opacity=".45"/><circle cx="111" cy="116" r="4" fill="#111827"/><circle cx="145" cy="116" r="4" fill="#111827"/><path d="M116 138 q12 9 25 0" fill="none" stroke="#7f1d1d" stroke-width="4" stroke-linecap="round"/><path d="M89 202 h78 v36 h-78z" fill="#f97316" opacity=".88"/><circle cx="128" cy="220" r="5" fill="#fff" opacity=".85"/></g>
</svg>