<svg xmlns="http://www.w3.org/2000/svg" width="256" height="256" viewBox="0 0 256 256" role="img" aria-labelledby="title desc">
<title id="title">Bo demo persona portrait</title><desc id="desc">Original friendly rounded avatar illustration for the Menagerai demo login role.</desc>
<defs><linearGradient id="bg" x1="0" y1="0" x2="1" y2="1"><stop stop-color="#fff7ed"/><stop offset="1" stop-color="#eff6ff"/></linearGradient><filter id="s" x="-20%" y="-20%" width="140%" height="140%"><feDropShadow dx="0" dy="10" stdDeviation="10" flood-color="#111827" flood-opacity=".14"/></filter></defs>
<rect width="256" height="256" rx="36" fill="url(#bg)"/><circle cx="203" cy="51" r="24" fill="#facc15" opacity=".18"/><circle cx="50" cy="205" r="30" fill="#0f766e" opacity=".12"/><path d="M43 72c21-30 65-41 101-27 42 17 68 57 58 98-11 46-54 77-101 69-41-7-71-41-72-82-.1-20 5-40 14-58z" fill="#fff" opacity=".76"/>
<g filter="url(#s)"><path d="M76 188 C87 160 169 160 180 188 L193 232 H63 Z" fill="#0f766e"/><path d="M88 170 C102 184 153 184 168 170 C158 158 98 158 88 170Z" fill="#fff" opacity=".25"/><path d="M82 98 C86 68 162 68 166 100 C178 118 169 145 151 151 C132 160 94 152 83 132 C76 120 76 108 82 98" fill="#1f2937"/><path d="M100 106 C101 87 155 87 156 107 L153 135 C148 153 108 153 103 135 Z" fill="#f7c7a3"/><path d="M105 122 q8 7 18 0" fill="none" stroke="#92400e" stroke-width="4" stroke-linecap="round" opacity=".45"/><circle cx="111" cy="116" r="4" fill="#111827"/><circle cx="145" cy="116" r="4" fill="#111827"/><path d="M116 138 q12 9 25 0" fill="none" stroke="#7f1d1d" stroke-width="4" stroke-linecap="round"/><path d="M80 204 h96 v8 h-96z" fill="#facc15" opacity=".88"/><circle cx="128" cy="220" r="5" fill="#fff" opacity=".85"/></g>
</svg>