<svg xmlns="http://www.w3.org/2000/svg" width="256" height="256" viewBox="0 0 256 256" role="img" aria-labelledby="title desc">
<title id="title">Cam demo persona portrait</title><desc id="desc">Original friendly rounded avatar illustration for the Menagerai demo login role.</desc>
<defs><linearGradient id="bg" x1="0" y1="0" x2="1" y2="1"><stop stop-color="#fff7ed"/><stop offset="1" stop-color="#eff6ff"/></linearGradient><filter id="s" x="-20%" y="-20%" width="140%" height="140%"><feDropShadow dx="0" dy="10" stdDeviation="10" flood-color="#111827" flood-opacity=".14"/></filter></defs>
<rect width="256" height="256" rx="36" fill="url(#bg)"/><circle cx="203" cy="51" r="24" fill="#22c55e" opacity=".18"/><circle cx="50" cy="205" r="30" fill="#7c3aed" opacity=".12"/><path d="M43 72c21-30 65-41 101-27 42 17 68 57 58 98-11 46-54 77-101 69-41-7-71-41-72-82-.1-20 5-40 14-58z" fill="#fff" opacity=".76"/>
<g filter="url(#s)"><path d="M72 190 C86 161 170 161 184 190 L198 232 H58 Z" fill="#7c3aed"/><path d="M88 170 C102 184 153 184 168 170 C158 158 98 158 88 170Z" fill="#fff" opacity=".25"/><path d="M75 103 C74 72 111 62 135 70 C162 78 179 105 170 134 C160 166 91 166 80 134 C77 124 75 114 75 103" fill="#1f2937"/><path d="M100 106 C102 86 154 86 156 106 L152 135 C148 153 108 153 104 135 Z" fill="#f7c7a3"/><path d="M105 122 q8 7 18 0" fill="none" stroke="#92400e" stroke-width="4" stroke-linecap="round" opacity=".45"/><circle cx="111" cy="116" r="4" fill="#111827"/><circle cx="145" cy="116" r="4" fill="#111827"/><path d="M116 138 q12 9 25 0" fill="none" stroke="#7f1d1d" stroke-width="4" stroke-linecap="round"/><path d="M92 199 l35 23 35-23 12 33 H80z" fill="#22c55e" opacity=".88"/><circle cx="128" cy="220" r="5" fill="#fff" opacity=".85"/></g>
</svg>