<svg xmlns="http://www.w3.org/2000/svg" width="256" height="256" viewBox="0 0 256 256" role="img" aria-labelledby="title desc">
<title id="title">Dee demo persona portrait</title><desc id="desc">Original friendly rounded avatar illustration for the Menagerai demo login role.</desc>
<defs><linearGradient id="bg" x1="0" y1="0" x2="1" y2="1"><stop stop-color="#fff7ed"/><stop offset="1" stop-color="#eff6ff"/></linearGradient><filter id="s" x="-20%" y="-20%" width="140%" height="140%"><feDropShadow dx="0" dy="10" stdDeviation="10" flood-color="#111827" flood-opacity=".14"/></filter></defs>
<rect width="256" height="256" rx="36" fill="url(#bg)"/><circle cx="203" cy="51" r="24" fill="#38bdf8" opacity=".18"/><circle cx="50" cy="205" r="30" fill="#db2777" opacity=".12"/><path d="M43 72c21-30 65-41 101-27 42 17 68 57 58 98-11 46-54 77-101 69-41-7-71-41-72-82-.1-20 5-40 14-58z" fill="#fff" opacity=".76"/>
<g filter="url(#s)"><path d="M70 188 C84 160 172 160 186 188 L201 232 H55 Z" fill="#db2777"/><path d="M88 170 C102 184 153 184 168 170 C158 158 98 158 88 170Z" fill="#fff" opacity=".25"/><path d="M79 105 C76 76 96 62 128 62 C160 62 180 78 177 108 C174 144 154 164 128 164 C102 164 82 144 79 105" fill="#1f2937"/><path d="M100 106 C101 86 155 86 156 106 L152 135 C148 153 108 153 104 135 Z" fill="#f7c7a3"/><path d="M105 122 q8 7 18 0" fill="none" stroke="#92400e" stroke-width="4" stroke-linecap="round" opacity=".45"/><circle cx="111" cy="116" r="4" fill="#111827"/><circle cx="145" cy="116" r="4" fill="#111827"/><path d="M116 138 q12 9 25 0" fill="none" stroke="#7f1d1d" stroke-width="4" stroke-linecap="round"/><path d="M78 198 h34 v34 H78z M144 198 h34 v34h-34z" fill="#38bdf8" opacity=".88"/><circle cx="128" cy="220" r="5" fill="#fff" opacity=".85"/></g>
</svg>